# xmcd
#
# Track frame offsets:
#	182
#	14882
#	25225
#	38182
#	52430
#	61662
#	71967
#	82415
#	96650
#	109492
#	121527
#	132512
#	143650
#	154602
#	168172
#	182390
#	195087
#	205780
#	214822
#
# Disc length: 2991 seconds
#
# Revision: 1
# Processed by: cddbd v1.4PL0 Copyright (c) Steve Scherf et al.
# Submitted via: audiograbber 1.81.03
#
DISCID=190bad13
DTITLE=JB Lenoir - I Don't Know
DYEAR=1969
DGENRE=Blues
TTITLE0=I've Been Down For So Long
TTITLE1=Don't Touch My Head
TTITLE2=Eisenhower Blues
TTITLE3=What Have I Done
TTITLE4=Mama Your Daughter Is Going To Miss Me
TTITLE5=Everybody Wants To Know
TTITLE6=Give Me One More Shot
TTITLE7=We Can't Go On This Way
TTITLE8=If You Love Me
TTITLE9=When I Am Drinking
TTITLE10=J.B.'s Rock
TTITLE11=Low Down Dirty Shame
TTITLE12=Mama Talk To Your Daughter
TTITLE13=Sitting Down Thinking
TTITLE14=Man Watch Your Woman
TTITLE15=Daddy Talk To Your Son
TTITLE16=I Don't Know
TTITLE17=Voodoo Boogie
TTITLE18=Good Looking Woman
EXTD=
EXTT0=
EXTT1=
EXTT2=
EXTT3=
EXTT4=
EXTT5=
EXTT6=
EXTT7=
EXTT8=
EXTT9=
EXTT10=
EXTT11=
EXTT12=
EXTT13=
EXTT14=
EXTT15=
EXTT16=
EXTT17=
EXTT18=
PLAYORDER=
